# xmcd
#
# Track frame offsets:
#	150
#	18192
#	38210
#	56655
#	86452
#	106355
#	124110
#	156930
#	181052
#	210387
#	236430
#	255160
#	271100
#	300525
#
# Disc length: 4061 seconds
#
# Revision: 1
# Processed by: cddbd v1.5.2PL0 Copyright (c) Steve Scherf et al.
# Submitted via: EZCDAudioConverter 1.0.6.1
#
DISCID=a40fdb0e
DTITLE=Beau Jocque and the Zydeco Hi-Rollers - Check It Out, Lock It In, Crank
DTITLE=It Up!
DYEAR=1998
DGENRE=Blues
TTITLE0=Come Go With Me
TTITLE1=Keep a Knockin
TTITLE2=Slide and Dip It
TTITLE3=Going to the Country
TTITLE4=Why You Wanna Make Me Crazy?
TTITLE5=Like a Pot of Neckbones
TTITLE6=She Wants to Sell My Monkey
TTITLE7=Tighten Up
TTITLE8=Check It Out, Lock It In
TTITLE9=What You Gonna Do?
TTITLE10=Tequila
TTITLE11=Hi Rollers Yall
TTITLE12=Slide and Dip It
TTITLE13=outtakes
EXTD=
EXTT0=
EXTT1=
EXTT2=
EXTT3=
EXTT4=
EXTT5=
EXTT6=
EXTT7=
EXTT8=
EXTT9=
EXTT10=
EXTT11=
EXTT12=
EXTT13=
PLAYORDER=
